# Blender v2.80 (sub 75) OBJ File: 'crown.blend'
# www.blender.org
o Cylinder
v 0.015128 0.126488 -0.426515
v 0.016506 0.261984 -0.449948
v 0.098397 0.123056 -0.421934
v 0.110489 0.324964 -0.466932
v 0.178890 0.121753 -0.398964
v 0.229132 0.510425 -0.499480
v 0.251866 0.123056 -0.358365
v 0.281311 0.324964 -0.396175
v 0.313501 0.126489 -0.302925
v 0.332248 0.261984 -0.319163
v 0.369326 0.123056 -0.240905
v 0.412053 0.324964 -0.265433
v 0.410072 0.121753 -0.167783
v 0.522283 0.510425 -0.206330
v 0.432895 0.123056 -0.087436
v 0.482810 0.324964 -0.094611
v 0.437091 0.126489 -0.004553
v 0.463032 0.261984 -0.003422
v 0.432895 0.123056 0.078678
v 0.482810 0.324964 0.090286
v 0.410072 0.121753 0.159157
v 0.522283 0.510425 0.208247
v 0.369326 0.123056 0.232147
v 0.412053 0.324964 0.261108
v 0.313501 0.126489 0.293820
v 0.332247 0.261984 0.312319
v 0.251866 0.123056 0.349607
v 0.281311 0.324964 0.391850
v 0.178890 0.121753 0.390338
v 0.229132 0.510425 0.501398
v 0.098397 0.123056 0.413176
v 0.110489 0.324964 0.462607
v 0.015128 0.126489 0.417410
v 0.016506 0.261984 0.443104
v -0.066516 0.130920 0.404301
v -0.070329 0.336449 0.432473
v -0.144759 0.130920 0.380566
v -0.153720 0.336449 0.407177
v -0.219302 0.126489 0.346296
v -0.231570 0.261984 0.367850
v -0.285701 0.123056 0.296661
v -0.317040 0.324964 0.332917
v -0.339757 0.121753 0.233008
v -0.453568 0.510425 0.255071
v -0.379231 0.121753 0.159157
v -0.402215 0.123056 0.078678
v -0.446729 0.324964 0.090285
v -0.406834 0.126489 -0.004553
v -0.430019 0.261984 -0.003422
v -0.402215 0.123056 -0.087436
v -0.446729 0.324964 -0.094612
v -0.379231 0.121753 -0.167783
v -0.478595 0.510425 -0.206331
v -0.338646 0.123056 -0.240905
v -0.375972 0.324964 -0.265434
v -0.283244 0.126488 -0.302926
v -0.299235 0.261984 -0.319164
v -0.221186 0.123056 -0.358365
v -0.245230 0.324964 -0.396176
v -0.148049 0.121753 -0.398965
v -0.185444 0.510423 -0.499481
v -0.067716 0.123056 -0.421934
v -0.074407 0.324962 -0.466932
vt 1.000000 1.000000
vt 0.968750 0.500000
vt 1.000000 0.500000
vt 0.968750 1.000000
vt 0.937500 0.500000
vt 0.906250 1.000000
vt 0.906250 0.500000
vt 0.875000 1.000000
vt 0.875000 0.500000
vt 0.843750 0.500000
vt 0.843750 1.000000
vt 0.812500 0.500000
vt 0.781250 1.000000
vt 0.781250 0.500000
vt 0.750000 1.000000
vt 0.750000 0.500000
vt 0.718750 0.500000
vt 0.718750 1.000000
vt 0.687500 0.500000
vt 0.656250 1.000000
vt 0.656250 0.500000
vt 0.625000 1.000000
vt 0.625000 0.500000
vt 0.593750 0.500000
vt 0.593750 1.000000
vt 0.562500 0.500000
vt 0.531250 1.000000
vt 0.531250 0.500000
vt 0.500000 1.000000
vt 0.500000 0.500000
vt 0.468750 0.500000
vt 0.437500 1.000000
vt 0.437500 0.500000
vt 0.406250 1.000000
vt 0.406250 0.500000
vt 0.375000 0.500000
vt 0.375000 1.000000
vt 0.343750 0.500000
vt 0.312500 1.000000
vt 0.312500 0.500000
vt 0.281250 1.000000
vt 0.281250 0.500000
vt 0.250000 1.000000
vt 0.250000 0.500000
vt 0.218750 0.500000
vt 0.218750 1.000000
vt 0.187500 0.500000
vt 0.156250 1.000000
vt 0.156250 0.500000
vt 0.125000 1.000000
vt 0.125000 0.500000
vt 0.093750 0.500000
vt 0.093750 1.000000
vt 0.062500 0.500000
vt 0.031250 1.000000
vt 0.031250 0.500000
vt 0.000000 1.000000
vt 0.000000 0.500000
vt 0.937500 1.000000
vt 0.812500 1.000000
vt 0.687500 1.000000
vt 0.562500 1.000000
vt 0.468750 1.000000
vt 0.343750 1.000000
vt 0.187500 1.000000
vt 0.062500 1.000000
vn 0.0471 -0.1707 -0.9842
vn 0.2640 -0.2248 -0.9379
vn 0.4764 -0.2285 -0.8490
vn 0.6635 -0.1789 -0.7265
vn 0.7261 -0.1800 -0.6636
vn 0.8468 -0.2370 -0.4761
vn 0.9348 -0.2404 -0.2616
vn 0.9814 -0.1875 -0.0419
vn 0.9812 -0.1882 0.0417
vn 0.9336 -0.2458 0.2608
vn 0.8442 -0.2469 0.4757
vn 0.7225 -0.1907 0.6646
vn 0.6646 -0.1906 0.7225
vn 0.4757 -0.2461 0.8445
vn 0.2610 -0.2443 0.9339
vn 0.0422 -0.1866 0.9815
vn -0.1655 -0.1821 0.9692
vn -0.2876 -0.1353 0.9481
vn -0.4021 -0.1792 0.8979
vn -0.5831 -0.1789 0.7924
vn -0.7398 -0.2285 0.6329
vn -0.8481 -0.2741 0.4533
vn -0.9385 -0.2221 0.2644
vn -0.9845 -0.1689 0.0477
vn -0.9846 -0.1681 -0.0479
vn -0.9395 -0.2166 -0.2653
vn -0.8522 -0.2155 -0.4768
vn -0.7309 -0.1656 -0.6621
vn -0.6621 -0.1657 -0.7309
vn -0.4768 -0.2163 -0.8520
vn -0.2650 -0.2181 -0.9393
vn -0.0474 -0.1697 -0.9843
vn -0.0319 -0.2156 -0.9760
vn 0.1549 -0.2661 -0.9514
vn 0.5653 -0.2743 -0.7779
vn 0.7159 -0.2280 -0.6599
vn 0.6607 -0.2267 -0.7156
vn 0.7749 -0.2799 -0.5668
vn 0.9471 -0.2876 -0.1428
vn 0.9701 -0.2382 0.0459
vn 0.9704 -0.2373 -0.0453
vn 0.9463 -0.2910 0.1408
vn 0.7673 -0.2935 0.5702
vn 0.6517 -0.2411 0.7191
vn 0.7192 -0.2412 0.6516
vn 0.5700 -0.2930 0.7676
vn 0.1420 -0.2889 0.9468
vn -0.0440 -0.2351 0.9710
vn -0.2347 -0.1363 0.9625
vn -0.3406 -0.1353 0.9304
vn -0.5076 -0.2280 0.8309
vn -0.7098 -0.2453 0.6603
vn -0.9446 -0.2367 0.2272
vn -0.9765 -0.2135 -0.0306
vn -0.9763 -0.2141 0.0310
vn -0.9527 -0.2593 -0.1587
vn -0.7871 -0.2568 -0.5608
vn -0.6707 -0.2104 -0.7113
vn -0.7112 -0.2103 -0.6707
vn -0.5609 -0.2575 -0.7868
vn -0.1575 -0.2614 -0.9523
vn 0.0324 -0.2164 -0.9758
s off
f 2/1/1 3/2/1 1/3/1
f 4/4/2 5/5/2 3/2/2
f 5/5/3 8/6/3 7/7/3
f 7/7/4 10/8/4 9/9/4
f 10/8/5 11/10/5 9/9/5
f 12/11/6 13/12/6 11/10/6
f 13/12/7 16/13/7 15/14/7
f 15/14/8 18/15/8 17/16/8
f 18/15/9 19/17/9 17/16/9
f 20/18/10 21/19/10 19/17/10
f 21/19/11 24/20/11 23/21/11
f 23/21/12 26/22/12 25/23/12
f 26/22/13 27/24/13 25/23/13
f 28/25/14 29/26/14 27/24/14
f 29/26/15 32/27/15 31/28/15
f 31/28/16 34/29/16 33/30/16
f 34/29/17 35/31/17 33/30/17
f 35/31/18 38/32/18 37/33/18
f 37/33/19 40/34/19 39/35/19
f 40/34/20 41/36/20 39/35/20
f 42/37/21 43/38/21 41/36/21
f 43/38/22 44/39/22 45/40/22
f 45/40/23 47/41/23 46/42/23
f 46/42/24 49/43/24 48/44/24
f 49/43/25 50/45/25 48/44/25
f 51/46/26 52/47/26 50/45/26
f 52/47/27 55/48/27 54/49/27
f 54/49/28 57/50/28 56/51/28
f 57/50/29 58/52/29 56/51/29
f 59/53/30 60/54/30 58/52/30
f 60/54/31 63/55/31 62/56/31
f 62/56/32 2/57/32 1/58/32
f 2/1/33 4/4/33 3/2/33
f 4/4/34 6/59/34 5/5/34
f 5/5/35 6/59/35 8/6/35
f 7/7/36 8/6/36 10/8/36
f 10/8/37 12/11/37 11/10/37
f 12/11/38 14/60/38 13/12/38
f 13/12/39 14/60/39 16/13/39
f 15/14/40 16/13/40 18/15/40
f 18/15/41 20/18/41 19/17/41
f 20/18/42 22/61/42 21/19/42
f 21/19/43 22/61/43 24/20/43
f 23/21/44 24/20/44 26/22/44
f 26/22/45 28/25/45 27/24/45
f 28/25/46 30/62/46 29/26/46
f 29/26/47 30/62/47 32/27/47
f 31/28/48 32/27/48 34/29/48
f 34/29/49 36/63/49 35/31/49
f 35/31/18 36/63/18 38/32/18
f 37/33/50 38/32/50 40/34/50
f 40/34/51 42/37/51 41/36/51
f 42/37/52 44/64/52 43/38/52
f 45/40/53 44/39/53 47/41/53
f 46/42/54 47/41/54 49/43/54
f 49/43/55 51/46/55 50/45/55
f 51/46/56 53/65/56 52/47/56
f 52/47/57 53/65/57 55/48/57
f 54/49/58 55/48/58 57/50/58
f 57/50/59 59/53/59 58/52/59
f 59/53/60 61/66/60 60/54/60
f 60/54/61 61/66/61 63/55/61
f 62/56/62 63/55/62 2/57/62
